<svg width="757" height="150" viewBox="0 0 757 150" fill="none" xmlns="http://www.w3.org/2000/svg">
<path d="M30.4856 132.663C12.3451 127.431 4.41848 111.323 8.74167 96.3343C13.0649 81.3453 28.352 71.9331 46.4925 77.1653C53.4874 79.1828 58.1157 82.7658 61.6975 87.3791C63.4833 89.5594 63.0162 91.756 60.7266 93.3436L57.4244 95.5551C55.1347 97.1428 53.2899 96.6107 51.4273 94.4082C49.071 91.8969 45.9653 90.2518 42.9675 89.3871C33.3591 86.6158 25.3682 91.8046 22.8851 100.414C20.4021 109.023 24.4024 117.67 34.0107 120.441C37.0085 121.306 40.4364 121.545 43.8451 120.697C46.5945 119.824 48.4393 120.356 49.5318 122.92L51.149 126.55C52.2415 129.113 51.6651 131.112 49.2453 131.996C43.581 134.025 37.6342 134.725 30.4856 132.663Z" fill="#FF5700"/>
<path d="M62.5063 139.351C59.7501 138.858 58.5214 137.094 59.0144 134.338L64.8174 101.893C65.3104 99.1364 67.0742 97.9078 69.8305 98.4008L75.028 99.3304C77.7055 99.8093 79.0129 101.587 78.5199 104.343L77.703 108.911C80.4644 101.197 86.9955 100.577 89.8305 101.084C89.9093 101.098 90.8543 101.267 90.9977 101.374C93.0452 101.74 93.1291 103.543 92.8615 105.039L91.5938 112.127C91.1713 114.489 89.7282 115.288 87.9592 114.728C87.2645 114.522 86.7132 114.423 86.0832 114.311C80.4132 113.297 76.8234 116.556 75.5135 123.879L73.1895 136.873C72.6965 139.629 70.9326 140.858 68.1764 140.365L62.5063 139.351Z" fill="#FF5700"/>
<path d="M109.53 146.989C98.2095 146.045 90.6096 136.099 91.64 123.742C92.6703 111.385 101.812 102.835 113.133 103.779C118.554 104.231 122.912 106.842 125.191 111.287L125.297 110.011C125.53 107.221 127.171 105.833 129.961 106.065L135.701 106.544C138.492 106.777 139.88 108.418 139.647 111.208L136.909 144.054C136.676 146.844 135.035 148.233 132.245 148L126.505 147.521C123.714 147.289 122.326 145.648 122.559 142.857L122.658 141.662C119.682 145.588 114.951 147.441 109.53 146.989ZM114.128 136.134C119.709 136.599 123.595 132.347 124.087 126.448C124.579 120.548 121.45 115.711 115.87 115.246C110.209 114.774 106.475 119.119 105.99 124.939C105.505 130.759 108.468 135.662 114.128 136.134Z" fill="#FF5700"/>
<path d="M166.578 149.278C152.259 149.379 142.351 139.849 142.266 127.93C142.181 115.85 151.791 106.022 166.271 105.919C170.591 105.888 175.478 106.894 179.815 109.343C182.226 110.846 182.323 113.165 180.578 115.418L178.913 117.429C177.328 119.601 175.488 119.614 172.92 118.432C170.672 117.408 168.431 117.264 167.231 117.272C161.071 117.316 156.622 121.668 156.665 127.668C156.708 133.747 161.218 137.956 167.378 137.912C168.578 137.903 170.817 137.727 173.049 136.672C175.601 135.453 177.52 135.44 179.136 137.588L180.75 139.577C182.526 141.804 182.303 144.286 179.594 145.825C175.531 148.254 170.738 149.248 166.578 149.278Z" fill="#FF5700"/>
<path d="M227.175 145.952C220.159 146.534 215.184 143.655 211.167 136.844L205.683 127.826L206.893 142.416C207.124 145.206 205.735 146.847 202.945 147.078L197.205 147.554C194.414 147.786 192.774 146.396 192.542 143.606L188.476 94.5743C188.245 91.7838 189.634 90.1434 192.424 89.912L198.165 89.436C200.955 89.2046 202.596 90.5937 202.827 93.3842L205.2 122.006L213.212 107.293C214.329 105.274 215.771 104.272 218.083 104.08L224.541 103.544C228.129 103.247 229.516 105.46 227.608 108.588L218.321 123.406L223.673 130.829C225.672 133.634 227.405 134.213 229.398 134.047C229.797 134.014 230.588 133.868 231.285 133.57C233.006 133.026 234.222 133.166 235.152 134.694L237.396 138.522C238.245 140.057 237.979 141.684 236.072 142.886C233.028 144.904 229.885 145.727 227.175 145.952Z" fill="#FF5700"/>
<path d="M290.891 137.053C273.001 140.177 259.146 129.197 256.449 113.75C253.752 98.304 263.066 83.2779 280.955 80.1541C298.923 77.0166 312.778 87.9969 315.476 103.443C318.173 118.889 308.859 133.916 290.891 137.053ZM288.703 124.523C297.844 122.926 302.424 114.737 300.896 105.989C299.369 97.2414 292.285 91.0882 283.143 92.6845C274.08 94.267 269.422 102.471 270.949 111.218C272.477 119.966 279.64 126.105 288.703 124.523Z" fill="#FF5700"/>
<path d="M339.674 145.083C336.942 145.696 335.126 144.546 334.513 141.814L323.369 92.1694C322.756 89.4374 323.906 87.6214 326.638 87.0081L332.258 85.7466C334.99 85.1333 336.806 86.2835 337.419 89.0155L337.682 90.1863C339.269 85.5666 343.227 82.3823 348.535 81.1908C359.62 78.7026 369.848 85.9175 372.564 98.0164C375.28 110.115 369.116 121.01 358.032 123.498C352.724 124.689 347.785 123.503 344.376 120.004L348.563 138.66C349.177 141.392 348.026 143.208 345.294 143.821L339.674 145.083ZM352.067 113.358C357.531 112.132 359.793 106.869 358.514 101.17C357.235 95.4722 352.94 91.6808 347.476 92.9073C342.012 94.1339 339.498 99.3716 340.795 105.148C342.091 110.924 346.603 114.585 352.067 113.358Z" fill="#FF5700"/>
<path d="M406.101 111.922C391.361 115.632 380.251 108.529 377.341 96.9698C374.529 85.7983 380.233 73.7205 394.353 70.1663C406.455 67.1198 417.756 72.0299 421.23 84.8495C421.913 87.235 420.46 88.6732 417.823 89.3371L391.057 96.0745C391.956 99.6432 397.122 102.797 404.492 100.942C406.82 100.356 409.495 99.1879 411.975 96.9137C414.01 95.1642 415.988 94.8311 418.047 96.4576L419.485 97.5807C421.622 99.1876 422.15 101.612 420.155 103.847C416.359 108.102 411.221 110.633 406.101 111.922ZM389.533 89.0337L407.531 84.5031C405.739 80.0045 401.003 79.2167 396.969 80.2322C392.935 81.2476 389.156 84.2612 389.533 89.0337Z" fill="#FF5700"/>
<path d="M436.69 103.159C433.983 103.876 432.125 102.797 431.408 100.09L422.965 68.2296C422.248 65.523 423.328 63.6644 426.034 62.9472L431.602 61.4717C434.309 60.7545 436.167 61.8344 436.884 64.541L437.294 66.0876C438.296 61.4358 441.507 57.9366 447.229 56.4202C458.829 53.3463 464.097 62.2955 466.228 70.3379L471.31 89.516C472.028 92.2225 470.948 94.0812 468.241 94.7984L462.673 96.2738C459.967 96.9911 458.108 95.9111 457.391 93.2046L452.616 75.1865C451.469 70.8559 449.154 67.7449 445.056 68.831C440.957 69.9171 439.384 73.9754 440.798 79.3112L445.327 96.4014C446.044 99.1079 444.964 100.967 442.258 101.684L436.69 103.159Z" fill="#FF5700"/>
<path d="M504.542 85.0641C501.832 85.7706 499.978 84.6834 499.272 81.974L487.321 36.1465C486.615 33.4371 487.702 31.5828 490.411 30.8762L496.294 29.342C498.926 28.6557 500.858 29.7228 501.565 32.4322L506.329 50.7012L524.443 45.9776L519.679 27.7085C518.972 24.9991 520.06 23.1448 522.769 22.4382L528.575 20.9242C531.284 20.2177 533.139 21.305 533.845 24.0144L545.796 69.8418C546.502 72.5512 545.415 74.4056 542.706 75.1121L536.9 76.6261C534.19 77.3326 532.336 76.2454 531.629 73.536L527.471 57.5892L509.357 62.3129L513.515 78.2596C514.222 80.969 513.057 82.8436 510.425 83.5299L504.542 85.0641Z" fill="#FF5700"/>
<path d="M573.921 68.322C562.864 70.93 552.558 63.8264 549.711 51.7576C546.864 39.6889 552.91 28.7282 563.966 26.1202C569.261 24.8712 574.213 26.0045 577.756 29.5251L577.462 28.2793C576.819 25.5541 577.95 23.7258 580.675 23.0829L586.281 21.7605C589.006 21.1177 590.835 22.2481 591.478 24.9733L599.045 57.0529C599.688 59.7781 598.557 61.6065 595.832 62.2494L590.226 63.5718C587.501 64.2146 585.672 63.0842 585.029 60.3589L584.754 59.191C583.139 63.846 579.216 67.073 573.921 68.322ZM574.931 56.5763C580.382 55.2906 582.761 50.0443 581.402 44.2824C580.042 38.5205 575.57 34.8905 570.119 36.1761C564.591 37.4802 562.386 42.7676 563.727 48.4516C565.067 54.1356 569.403 57.8803 574.931 56.5763Z" fill="#FF5700"/>
<path d="M614.336 76.4389C611.587 76.9686 609.806 75.7637 609.277 73.0143L599.65 23.0533C599.12 20.3039 600.325 18.5238 603.074 17.994L608.73 16.9041C611.48 16.3743 613.26 17.5793 613.79 20.3287L614.017 21.507C615.743 16.9378 619.797 13.8755 625.139 12.8462C636.294 10.6968 646.298 18.2198 648.644 30.3958C650.99 42.5718 644.498 53.2735 633.343 55.423C628.001 56.4523 623.1 55.1155 619.799 51.515L623.417 70.2897C623.946 73.0391 622.741 74.8192 619.992 75.349L614.336 76.4389ZM627.689 45.1064C633.188 44.0468 635.609 38.8549 634.504 33.1204C633.399 27.3859 629.222 23.4654 623.723 24.525C618.224 25.5846 615.552 30.7434 616.672 36.5564C617.792 42.3695 622.19 46.166 627.689 45.1064Z" fill="#FF5700"/>
<path d="M667.578 66.5744C664.799 66.9142 663.105 65.5899 662.766 62.8105L656.591 12.3066C656.251 9.52728 657.576 7.83406 660.355 7.49426L666.072 6.79526C668.852 6.45547 670.545 7.77978 670.885 10.5591L671.03 11.7502C673.066 7.3103 677.321 4.53348 682.721 3.87331C693.997 2.49473 703.461 10.6868 704.966 22.9951C706.47 35.3035 699.259 45.5343 687.983 46.9128C682.583 47.573 677.785 45.9029 674.739 42.0844L677.059 61.063C677.399 63.8424 676.075 65.5356 673.295 65.8754L667.578 66.5744ZM683.05 36.2325C688.609 35.5529 691.381 30.5395 690.672 24.7426C689.963 18.9458 686.065 14.7478 680.506 15.4274C674.948 16.107 671.928 21.0702 672.646 26.9464C673.365 32.8227 677.491 36.9121 683.05 36.2325Z" fill="#FF5700"/>
<path d="M723.825 60.8791C720.546 60.9715 719.208 58.9283 720.324 55.9357L726.902 39.424L710.935 6.74056C709.493 3.82002 710.794 1.70255 714.072 1.6102L720.55 1.42776C723.109 1.35568 724.74 2.43018 725.607 4.80671L733.447 24.5938L740.479 4.30779C741.293 1.96393 742.861 0.799327 745.34 0.729502L751.417 0.558317C754.616 0.46822 756.034 2.5091 754.838 5.50397L733.729 57.3189C732.834 59.665 731.262 60.6696 728.783 60.7395L723.825 60.8791Z" fill="#FF5700"/>
</svg>
