<?xml version="1.0" encoding="UTF-8"?>
<svg id="Layer_1" data-name="Layer 1" xmlns="http://www.w3.org/2000/svg" viewBox="0 0 112.98 112.98">
  <defs>
    <style>
      .cls-1, .cls-2 {
        fill: none;
        stroke: #e95c00;
        stroke-miterlimit: 10;
        stroke-width: 3px;
      }

      .cls-3, .cls-4 {
        fill: #e99e44;
        opacity: .44;
      }

      .cls-3, .cls-4, .cls-5 {
        stroke-width: 0px;
      }

      .cls-2, .cls-4, .cls-5 {
        fill-rule: evenodd;
      }

      .cls-5 {
        fill: #e95c00;
      }
    </style>
  </defs>
  <circle class="cls-3" cx="59.8" cy="63.11" r="41.59"/>
  <circle class="cls-1" cx="58.27" cy="58.31" r="41.59"/>
  <path class="cls-4" d="m68.17,83.09c-6.14-.84-11.36-6.64-10.56-13.17.06-.49.4-.45.55-.45.16,0,.44.07.5-.27.06-.34.38-.49.9-.49,5.38,0,11.41,6.04,12.12,10.96.11.73.32,2.01-.59,2.27-.25.07-.44.14-.54.43-.3.9-1.84.79-2.38.72Z"/>
  <path class="cls-4" d="m62.3,60.07c2.33,4.82,10.72,5.23,14.21,2.28.33-.28.27-.45.22-.6-.15-.45-.03-.52.17-.8.19-.26.24-.69-.17-1.21-3.68-4.7-9.34-4.62-13.59-2.01-.87.53-1.37,1.25-.85,2.34Z"/>
  <path class="cls-4" d="m53.47,79.39c-2.68-4.09-9.93-6.57-14.04-3.99-.48.3-.63.8-.29,1.48,2.48,4.93,9.55,6.75,14.09,4.13.81-.47.81-.75.24-1.62Z"/>
  <path class="cls-4" d="m78.3,51.21c-4.89.23-11.15-4.17-11.47-9.02-.04-.57.28-.98,1.03-1.1,5.45-.89,11.07,3.77,11.61,8.97.1.93-.13,1.1-1.17,1.15Z"/>
  <path class="cls-4" d="m37.69,59.05c4.25-.52,9.01-5.23,8.58-9.46-.05-.5-.38-.8-1.05-.8-4.84.03-9.01,4.87-8.71,9.44.05.82.27.93,1.18.82Z"/>
  <path class="cls-2" d="m66.29,80.55c-6.14-.84-11.36-6.64-10.56-13.17.06-.49.4-.45.55-.45.16,0,.44.07.5-.27.06-.34.38-.49.9-.49,5.38,0,11.41,6.04,12.12,10.96.11.73.32,2.01-.59,2.27-.25.07-.44.14-.54.43-.3.9-1.84.79-2.38.72Z"/>
  <path class="cls-2" d="m60.41,57.54c2.33,4.82,10.72,5.23,14.21,2.28.33-.28.27-.45.22-.6-.15-.45-.03-.52.17-.8.19-.26.24-.69-.17-1.21-3.68-4.7-9.34-4.62-13.59-2.01-.87.53-1.37,1.25-.85,2.34Z"/>
  <path class="cls-5" d="m47.78,38.85c-.1,5.19,5.26,9.88,10.48,11.49.94.29,1.08-.65,1.07-1.17-.06-5.1-5.06-10.12-9.59-11.83-1.43-.54-1.94.03-1.96,1.5Z"/>
  <path class="cls-5" d="m52.39,54.59c1.16-.06,1.6.32,1.7.83.09.47.12.5.66.65.6.16.85.98.63,1.76-.98,3.52-8.65,10.2-14.09,8.8-.76-.2-1.14-.94-1.25-1.84-.65-5.63,7.29-9.94,12.34-10.2Z"/>
  <path class="cls-2" d="m51.59,76.85c-2.68-4.09-9.93-6.57-14.04-3.99-.48.3-.63.8-.29,1.48,2.48,4.93,9.55,6.75,14.09,4.13.81-.47.81-.75.24-1.62Z"/>
  <path class="cls-5" d="m75.77,73.04c5.68-.32,10.88-5.23,10.62-11.26-.02-.45-.33-.44-.47-.45-.15-.01-.41.03-.44-.28-.03-.31-.31-.47-.78-.51-4.92-.4-10.88,4.68-11.89,9.13-.15.66-.44,1.82.38,2.12.22.08.39.16.46.43.21.85,1.62.86,2.12.83Z"/>
  <path class="cls-2" d="m76.42,48.68c-4.89.23-11.15-4.17-11.47-9.02-.04-.57.28-.98,1.03-1.1,5.45-.89,11.07,3.77,11.61,8.97.1.93-.13,1.1-1.17,1.15Z"/>
  <path class="cls-2" d="m35.81,56.52c4.25-.52,9.01-5.23,8.58-9.46-.05-.5-.38-.8-1.05-.8-4.84.03-9.01,4.87-8.71,9.44.05.82.27.93,1.18.82Z"/>
</svg>