<svg width="360" height="233" viewBox="0 0 360 233" fill="none" xmlns="http://www.w3.org/2000/svg">
<path d="M31.0541 63.901C12.6598 59.6458 3.88369 43.9849 7.39962 28.7862C10.9156 13.5876 25.6778 3.37188 44.072 7.62706C51.1647 9.26783 55.9779 12.5983 59.8012 17.0136C61.7009 19.0953 61.3519 21.3138 59.1504 23.0215L55.9711 25.4063C53.7695 27.1141 51.8989 26.6813 49.9213 24.5816C47.4341 22.1998 44.2449 20.723 41.2052 20.0198C31.4625 17.766 23.7603 23.3744 21.7409 32.1038C19.7215 40.8333 24.1782 49.2544 33.9209 51.5082C36.9606 52.2114 40.3965 52.2672 43.7549 51.2377C46.4538 50.2197 48.3244 50.6525 49.5523 53.1536L51.3612 56.6923C52.5891 59.1934 52.1203 61.2199 49.7513 62.232C44.2035 64.5616 38.3026 65.5778 31.0541 63.901Z" fill="#FF5700"/>
<path d="M62.8692 69.3148C60.1049 68.8687 58.8465 67.1259 59.2926 64.3617L64.5437 31.8227C64.9898 29.0584 66.7325 27.8 69.4968 28.2461L74.7093 29.0873C77.3946 29.5206 78.732 31.2761 78.2859 34.0404L77.5467 38.6211C80.1766 30.861 86.6962 30.1303 89.5395 30.5892C89.6184 30.6019 90.5662 30.7549 90.7114 30.8593C92.7648 31.1907 92.8793 32.992 92.6372 34.4925L91.4901 41.6006C91.1077 43.9699 89.6784 44.7927 87.9001 44.2626C87.202 44.069 86.6492 43.9797 86.0174 43.8778C80.3309 42.9601 76.797 46.2795 75.6117 53.6245L73.5087 66.6559C73.0626 69.4201 71.3198 70.6785 68.5556 70.2324L62.8692 69.3148Z" fill="#FF5700"/>
<path d="M109.345 76.7993C98.0501 75.5829 90.6921 65.4568 92.0198 53.1281C93.3476 40.7994 102.693 32.4722 113.988 33.6886C119.396 34.2711 123.69 36.9865 125.861 41.4848L125.998 40.2121C126.298 37.4282 127.972 36.0797 130.756 36.3795L136.483 36.9963C139.267 37.2961 140.615 38.9701 140.315 41.754L136.786 74.5245C136.486 77.3084 134.812 78.6569 132.028 78.3571L126.302 77.7404C123.518 77.4405 122.169 75.7665 122.469 72.9826L122.597 71.7895C119.527 75.6429 114.754 77.3818 109.345 76.7993ZM114.203 66.0577C119.771 66.6573 123.759 62.5005 124.393 56.6145C125.027 50.7285 122.015 45.8178 116.447 45.2182C110.8 44.61 106.962 48.8636 106.337 54.67C105.712 60.4764 108.556 65.4495 114.203 66.0577Z" fill="#FF5700"/>
<path d="M168.858 81.641C154.559 80.8716 145.249 70.7568 145.89 58.854C146.539 46.7914 156.729 37.5656 171.188 38.3436C175.502 38.5757 180.319 39.8764 184.499 42.5849C186.814 44.2317 186.769 46.5526 184.892 48.6948L183.107 50.6017C181.393 52.6726 179.556 52.5737 177.064 51.2379C174.883 50.0791 172.655 49.7989 171.456 49.7345C165.305 49.4035 160.6 53.4766 160.277 59.4679C159.951 65.5391 164.196 70.0137 170.347 70.3447C171.546 70.4091 173.791 70.3697 176.084 69.4516C178.705 68.3909 180.622 68.494 182.103 70.7369L183.594 72.8199C185.231 75.1513 184.858 77.6148 182.06 78.9864C177.857 81.1638 173.012 81.8645 168.858 81.641Z" fill="#FF5700"/>
<path d="M226.742 82.9424C219.702 82.9081 214.998 79.605 211.593 72.4683L206.919 63.0054L206.847 77.6452C206.834 80.4452 205.306 81.9578 202.506 81.9441L196.746 81.916C193.946 81.9023 192.434 80.3749 192.448 77.5749L192.688 28.3755C192.701 25.5755 194.229 24.063 197.029 24.0766L202.789 24.1048C205.589 24.1184 207.101 25.6458 207.088 28.4458L206.947 57.1655L216.216 43.2106C217.505 41.2968 219.029 40.4243 221.349 40.4356L227.829 40.4672C231.429 40.4848 232.618 42.8106 230.443 45.7601L219.895 59.7087L224.577 67.5717C226.322 70.5402 227.999 71.2684 229.999 71.2782C230.399 71.2802 231.199 71.2041 231.92 70.9676C233.682 70.5762 234.881 70.822 235.673 72.4259L237.574 76.4353C238.286 78.0387 237.878 79.6368 235.873 80.667C232.664 82.4114 229.462 82.9557 226.742 82.9424Z" fill="#FF5700"/>
<path d="M173.22 145.187C155.079 144.364 143.929 130.644 144.64 114.98C145.351 99.3162 157.698 86.663 175.839 87.4865C194.06 88.3137 205.21 102.033 204.499 117.697C203.788 133.361 191.441 146.014 173.22 145.187ZM173.797 132.48C183.067 132.901 189.311 125.897 189.714 117.026C190.117 108.155 184.533 100.614 175.262 100.193C166.072 99.7763 159.748 106.777 159.345 115.648C158.943 124.518 164.606 132.063 173.797 132.48Z" fill="#FF5700"/>
<path d="M216.842 163.441C214.042 163.488 212.497 161.994 212.449 159.195L211.593 108.322C211.546 105.522 213.04 103.977 215.84 103.93L221.599 103.833C224.399 103.786 225.944 105.28 225.991 108.079L226.011 109.279C228.501 105.077 233.023 102.76 238.462 102.669C249.82 102.478 258.375 111.615 258.584 124.013C258.793 136.412 250.55 145.832 239.192 146.023C233.752 146.114 229.155 143.951 226.526 139.835L226.847 158.952C226.895 161.752 225.4 163.297 222.601 163.344L216.842 163.441ZM235.404 134.885C241.003 134.791 244.284 130.095 244.186 124.256C244.088 118.416 240.65 113.834 235.051 113.928C229.452 114.022 225.929 118.642 226.029 124.561C226.128 130.48 229.804 134.979 235.404 134.885Z" fill="#FF5700"/>
<path d="M288.923 143.561C273.768 144.735 264.014 135.862 263.093 123.978C262.203 112.492 269.861 101.548 284.377 100.423C296.82 99.4594 307.132 106.203 308.397 119.425C308.668 121.891 306.994 123.064 304.282 123.274L276.764 125.406C277.048 129.075 281.609 133.055 289.187 132.468C291.58 132.282 294.414 131.581 297.242 129.757C299.542 128.376 301.548 128.381 303.304 130.331L304.532 131.68C306.367 133.624 306.479 136.103 304.136 137.969C299.678 141.524 294.187 143.153 288.923 143.561ZM276.447 118.209L294.952 116.775C293.943 112.039 289.408 110.465 285.26 110.786C281.113 111.107 276.88 113.441 276.447 118.209Z" fill="#FF5700"/>
<path d="M322.73 139.461C319.963 139.888 318.229 138.617 317.802 135.85L312.777 103.275C312.35 100.508 313.62 98.774 316.387 98.3471L322.08 97.4689C324.847 97.042 326.581 98.3124 327.008 101.08L327.252 102.661C328.741 98.1413 332.303 95.0013 338.154 94.0987C350.014 92.2692 354.306 101.725 355.574 109.948L358.599 129.556C359.026 132.323 357.756 134.057 354.988 134.484L349.296 135.362C346.528 135.789 344.794 134.519 344.368 131.752L341.526 113.33C340.843 108.902 338.871 105.564 334.68 106.21C330.49 106.856 328.496 110.726 329.338 116.181L332.033 133.654C332.46 136.422 331.19 138.156 328.423 138.583L322.73 139.461Z" fill="#FF5700"/>
<path d="M35.56 196.254C32.806 195.748 31.5853 193.979 32.0906 191.225L40.6385 144.643C41.1439 141.889 42.9133 140.668 45.6673 141.173L51.6474 142.271C54.3227 142.762 55.6221 144.545 55.1168 147.3L51.7092 165.869L70.1217 169.248L73.5293 150.678C74.0347 147.924 75.8041 146.704 78.5581 147.209L84.4596 148.292C87.2136 148.797 88.4343 150.567 87.9289 153.321L79.381 199.903C78.8757 202.657 77.1063 203.877 74.3523 203.372L68.4508 202.289C65.6968 201.784 64.4761 200.014 64.9815 197.26L67.9559 181.051L49.5433 177.672L46.5689 193.882C46.0635 196.636 44.2155 197.842 41.5401 197.351L35.56 196.254Z" fill="#FF5700"/>
<path d="M108.258 208.639C96.965 207.408 89.6202 197.272 90.964 184.945C92.3078 172.618 101.664 164.303 112.957 165.534C118.365 166.124 122.656 168.845 124.82 173.346L124.959 172.074C125.263 169.29 126.938 167.944 129.722 168.247L135.448 168.871C138.231 169.175 139.578 170.851 139.274 173.634L135.702 206.4C135.399 209.184 133.723 210.53 130.94 210.226L125.214 209.602C122.43 209.299 121.084 207.623 121.387 204.84L121.517 203.647C118.442 207.496 113.666 209.229 108.258 208.639ZM113.13 197.904C118.697 198.511 122.691 194.359 123.332 188.474C123.974 182.589 120.969 177.674 115.402 177.067C109.755 176.452 105.912 180.7 105.279 186.506C104.646 192.311 107.484 197.288 113.13 197.904Z" fill="#FF5700"/>
<path d="M149.848 229.707C147.052 229.567 145.61 227.973 145.75 225.176L148.301 174.36C148.441 171.564 150.036 170.122 152.832 170.262L158.585 170.551C161.381 170.691 162.823 172.285 162.683 175.082L162.623 176.28C165.388 172.254 170.055 170.245 175.488 170.518C186.834 171.088 194.758 180.777 194.136 193.161C193.515 205.546 184.66 214.393 173.314 213.824C167.881 213.551 163.439 211.085 161.091 206.802L160.132 225.898C159.992 228.694 158.398 230.136 155.601 229.996L149.848 229.707ZM170.28 202.457C175.873 202.738 179.461 198.272 179.754 192.44C180.047 186.607 176.924 181.804 171.331 181.524C165.738 181.243 161.914 185.617 161.617 191.529C161.32 197.442 164.687 202.177 170.28 202.457Z" fill="#FF5700"/>
<path d="M206.216 231.986C203.416 232.003 201.887 230.492 201.871 227.692L201.57 176.813C201.553 174.013 203.064 172.484 205.864 172.467L211.624 172.433C214.424 172.417 215.953 173.928 215.969 176.727L215.976 177.927C218.512 173.752 223.058 171.485 228.498 171.453C239.858 171.386 248.313 180.616 248.386 193.016C248.46 205.416 240.115 214.745 228.755 214.812C223.315 214.845 218.742 212.632 216.157 208.487L216.27 227.607C216.287 230.407 214.776 231.936 211.976 231.952L206.216 231.986ZM225.089 203.634C230.689 203.601 234.021 198.941 233.986 193.101C233.952 187.261 230.565 182.641 224.965 182.674C219.365 182.707 215.792 187.289 215.827 193.209C215.862 199.129 219.489 203.667 225.089 203.634Z" fill="#FF5700"/>
<path d="M265.6 230.822C262.326 231.026 260.919 229.03 261.932 226.001L267.94 209.274L250.863 177.157C249.321 174.287 250.548 172.127 253.822 171.922L260.289 171.518C262.844 171.358 264.511 172.376 265.459 174.721L273.973 194.228L280.305 173.713C281.039 171.343 282.566 170.125 285.041 169.97L291.109 169.591C294.303 169.391 295.79 171.382 294.697 174.416L275.376 226.924C274.562 229.3 273.025 230.358 270.55 230.512L265.6 230.822Z" fill="#FF5700"/>
</svg>
