<?xml version="1.0" encoding="utf-8"?>
<!-- Generator: Adobe Illustrator 27.8.1, SVG Export Plug-In . SVG Version: 6.00 Build 0)  -->
<svg version="1.1" id="Layer_1" xmlns="http://www.w3.org/2000/svg" xmlns:xlink="http://www.w3.org/1999/xlink" x="0px" y="0px"
	 viewBox="0 0 187.4 186.1" style="enable-background:new 0 0 187.4 186.1;" xml:space="preserve">
<style type="text/css">
	.st0{fill:#1b1c47;}
</style>
<g>
	<path class="st0" d="M3.5,99.1L2.7,52.8c-0.1-2.4,1.4-3.6,2.5-4c1.3-0.4,3.3-1.2,4.6-1.2c1,0,1.8,0.4,2.1,1.5
		c0.1,0.2,0.2,1.1,0.3,2.4l0.3,15.9c0.1,1.2,0.6,1.6,1.9,1.4c0.4-0.1,4.7-1.2,7-1.8c3-0.8,3-1.8,2.9-4.1c-0.1-2.7-0.1-5.2-0.2-7.5
		c0-1.5,0-8.5,0-9.6c0-2.1,2.3-2.9,3.9-3.4c3.2-0.9,5.2-1.1,5.3,1.4c0.1,5.4,0.7,33,0.8,39.3c0,2.1,0.1,6.5,0.1,7.9
		c0,0.9-0.4,1.9-1.7,2.3c-1.7,0.5-2.6,0.7-4.5,1.1c-1.5,0.3-2.7,0.6-3-1.3c-0.1-0.4-0.3-16.8-0.5-17.8c-0.2-1.2-0.8-1.9-2.3-1.6
		c-2.6,0.4-7.6,2-7.8,2.1c-1.3,0.5-1.5,1.5-1.7,2.7l0.4,16.7c0,1.3-0.4,2.7-2,3.5c-0.3,0.1-2.6,1.1-3.4,1.3
		C5.3,100.8,3.8,100.6,3.5,99.1z M39.9,89.2c0-0.5,0-0.8,0.1-1.2c0.2-1,7.3-46.5,7.6-48.1c0.6-2.2,2.1-3.5,5.8-4.5
		c7.3-2,8.4-2,9.2,0.7c0.1,0.2,9.9,43,9.9,44.1c0,1.8,0,2-6.3,3.8c-3.2,0.8-2.9-3.5-3.5-5.9c-0.4-1.2-1.8-1.8-3.4-1.5
		c-3,0.6-5.7,1.4-7.8,2c-3.9,1.1-2.6,6.8-3.9,9.4c-0.7,1.5-1.4,2-4.5,2.8C41.2,91,39.9,90.4,39.9,89.2z M50.8,70
		c0,1.4,0.9,2,2.6,1.5c2.9-0.8,6.6-1.4,6.5-4c-0.1-3.5-2.2-12.4-2.5-13.6c-0.5-2.5-1.2-4.9-2.5-4.5c-0.6,0.2-0.9,0.5-1,1.1
		c0,0-0.1,0.4-0.2,0.9C53,54.9,50.8,67.8,50.8,70z M80.5,28.2c0.5-0.2,1.4-0.5,1.8-0.6c7.7-2.3,3.7-1.1,8.3-2.3
		c4.5-1,5.5-0.9,7.6-0.9c6.6,0.4,7.4,5.8,7.6,11.3c0.1,2.5,0.1,4.3,0.1,6.7c0.1,4.3-2,8-4.4,10.1c-1.5,1.4-2.9,2.3-4.7,3
		c-0.4,0.2-3.4,1.4-8,2.8c-1.1,0.3-1.9,1.1-1.8,2c0,2.1,0.2,15.2,0.2,15.2c0.1,2.4-2,3.4-5.2,4.3c-2.1,0.6-3.4,0.8-3.7-1.6
		c-0.4-3.4-1-43.2-1.1-44.7c-0.2-1.6,0.9-4.4,3.3-5.2C80.3,28.3,80.5,28.2,80.5,28.2z M86.2,35.5c0,1.3,0.1,12.4,0.4,13.8
		c0.5,2.2,2.7,1.6,4.8,1.1c2.9-0.8,5.8-3.2,5.7-6.7c0-1.7,0-2.2-0.1-4.2c0-2-0.3-4.6-0.5-5.5c-0.5-2.6-3.8-2.5-7-1.6
		C86.3,33.3,86.2,34.6,86.2,35.5z M116.2,18.2c0.5-0.2,1.4-0.5,1.8-0.6c7.7-2.3,3.7-1.1,8.3-2.3c4.5-1,5.5-0.9,7.6-0.9
		c6.6,0.4,7.4,5.8,7.6,11.3c0.1,2.5,0.1,4.3,0.1,6.7c0.1,4.3-2,8-4.4,10.1c-1.5,1.4-2.9,2.3-4.7,3c-0.4,0.2-3.4,1.4-8,2.8
		c-1.1,0.3-1.9,1.1-1.8,2c0,2.1,0.2,15.2,0.2,15.2c0.1,2.4-2,3.4-5.2,4.3c-2.1,0.6-3.4,0.8-3.7-1.6c-0.4-3.4-1-43.2-1.1-44.7
		c-0.2-1.6,0.9-4.4,3.3-5.2C116,18.3,116.2,18.2,116.2,18.2z M121.9,25.5c0,1.3,0.1,12.4,0.4,13.8c0.5,2.2,2.7,1.6,4.8,1.1
		c2.9-0.8,5.8-3.2,5.7-6.7c0-1.7,0-2.2-0.1-4.2c0-2-0.3-4.6-0.5-5.5c-0.5-2.6-3.8-2.5-7-1.6C122,23.3,121.9,24.6,121.9,25.5z
		 M155,36.2c0.9,1.7,1.7,3.6,1.8,6.1c0,0.7,0.2,13.7,0.4,14.6c0.2,1.1,1.8,1.5,3.5,1c4.1-1.1,5.3-1.4,5.4-4.5
		c0.1-1.5-0.2-12.5-0.2-13.2c0.1-2.1,0.6-3,1.2-4.9c2.1-6.5,7.2-23.2,9.5-30.9c0.7-2.1-0.7-2.4-1.4-2.2c-1.8,0.4-2.7,0.6-4.1,1
		c-1.6,0.4-2,1.3-2.3,2.4c-0.2,0.7-5.1,17.5-5.7,19.4c-0.2,0.5-0.6,1.5-1.4,1.7c-1.1,0.3-1.8-0.6-2.1-1.6
		c-2.2-5.7-5.5-13.7-6.2-15.5c-0.2-0.6-0.9-1.2-1.7-1.2c-0.2,0-0.5,0-1,0.1c-2.7,0.8-4.1,1.3-4.4,1.5c-1.9,1-1.4,2.6-0.9,4
		C147.3,19.2,154.4,34.9,155,36.2z M166.3,79.6c0-0.3-0.1-0.5-0.3-0.7c-0.5-0.4-1.4-0.3-2.3,0l-0.1,0c-0.6,0.1-1,0.6-0.9,1.2
		c0,0.3,0,0.6,0,0.9c0,0.3,0,0.7,0,1c0,0.6-0.6,1.4-1.5,1.6c-0.4,0.1-0.8,0-1-0.2c-0.3-0.2-0.3-0.6-0.3-0.9c0-0.7-0.2-7.5-0.2-7.8
		c-0.1-2-0.1-3.3,1.5-3.6c0.9-0.2,1.2,0.4,1.3,0.8c0.1,0.4,0.1,0.8,0.1,1.2l0,0.3c0,0.3,0.1,0.6,0.3,0.7c0.3,0.2,0.6,0.3,1.1,0.2
		c0.3-0.1,1.1-0.3,1.3-0.3c0.8-0.2,1.1-0.8,1.1-1.4c0-0.6,0-1.4-0.3-2.4c-0.5-1.3-2.2-3-5.1-2.4c-1.3,0.3-3.2,1.2-4,2.3
		c-0.1,0.1-0.4,0.5-0.5,0.8c-0.1,0.2-0.2,0.5-0.3,0.8c-0.2,0.8-0.3,1.8-0.3,3.1c0,0.1,0.1,7.6,0.2,8.3c0,0.1,0,0.2,0,0.2
		c0.1,1,0.6,1.8,0.9,2.3l0.2,0.2c0.4,0.4,0.8,0.6,1.4,0.8c0.1,0,0.3,0.1,0.4,0.1c0.3,0.1,0.7,0.2,1.1,0.2c0.5,0,1,0,1.6-0.1
		c2.6-0.5,4.2-1.7,4.7-3.7l0-0.1c0.1-0.4,0.3-1,0.2-2.2L166.3,79.6z M179.4,66.9c0,0.2,0.3,9.5,0.2,10.8c-0.1,1.1-0.7,2.5-1.6,3.4
		c-0.9,0.9-2.5,1.5-3.6,1.7c-0.6,0.1-1.2,0.1-1.7,0.1c-0.9-0.1-1.8-0.4-2.4-0.8c-0.6-0.5-1-1.1-1.1-1.9c-0.1-0.7-0.3-10.4-0.3-10.9
		c0-2.3,1.1-4.1,3-4.9c0.1,0,0.7-0.3,1.1-0.4c0.6-0.2,1.3-0.4,1.6-0.4c1.2-0.2,2.1-0.2,2.8,0.2C178.6,64.5,179.3,65.6,179.4,66.9z
		 M175.8,77.8c0-0.6-0.2-9.7-0.2-9.7c0-0.6-0.2-1-0.4-1.2c-0.2-0.2-0.5-0.2-1-0.2c-1.1,0.2-1.6,1.2-1.6,2c0,0.6,0.3,8.7,0.3,9
		c0,0.6,0,1.4,0.4,1.6c0.2,0.2,0.5,0.2,1,0.1C175.2,79.3,175.8,78.5,175.8,77.8z M164.6,111.6c-1.3,3-4.6,10.1-8.4,14.1
		c0,0-4.3,4.8-8.1,8.1c0,0-1.6,1.1-1.8,5.1l0-0.7l0,0.2l0,5.1c0,0,1.1,13.5-5.2,20c0,0-5.7,6.6-14.3,5.3c-0.6-0.1-1-0.1-1.6-0.3
		c-0.1,0-0.4-0.1-0.6-0.2c-0.8-0.2-1.7-0.6-2.5-1.1c0,0-7.7-4.4-5-13.4c0,0,0.4-3.9,8.1-10.6c2.8-2.4,4.5-3.8,5.7-4.8
		c1.4-1.2,2.4-2.4,2.7-3.5c0.1-0.4,0.2-0.7,0.2-1.4c0,0,0.1-1.7-1.6-1.4c-1.7,0.4-2.4,3.9-7.5,5.4c0,0-8.4,2.8-13.3-5.2
		c0,0-1.6-2.1-2.8-5.3c-1.1,2.7-4.6,10.4-8.6,14.5c0,0-4.3,4.8-8.1,8.1c0,0-1.9,1.4-1.9,6.4l0,0.4c0,0.3,0,0.6,0,0.9c0,0,0,0,0,0
		l0,1.6c0,0,1.1,13.5-5.2,20c0,0-5.7,6.6-14.3,5.3c-0.6-0.1-1-0.1-1.6-0.3c-0.1,0-0.4-0.1-0.6-0.2c-0.8-0.2-1.7-0.6-2.5-1.1
		c0,0-7.7-4.4-5-13.4c0,0,0.6-4,8.3-10.7c2.8-2.4,4.7-4,5.9-5.1c1.4-1.2,2-2,2.3-3.2c0.1-0.4,0.2-0.7,0.2-1.4c0,0,0.1-1.7-1.6-1.4
		c-1.7,0.4-2.4,3.9-7.5,5.4c0,0-8.4,2.8-13.3-5.2c0,0-1.4-1.6-2.7-5.4c-1.2,3-2.5,5.4-2.5,5.4c-6.1,12.2-19.2,16.1-19.2,16.1
		c-15.7,4.9-22.1-4.4-22.1-4.4c-9.7-11.9-6.7-30-6.7-30c1.4-14.2,8.5-20.1,11.1-21.9c0.6-0.4,1.1-0.7,1.1-0.7c3-1.8,5.1-2.3,5.1-2.3
		s1.7-0.6,3.4-0.7c0,0,1.7-0.3,4.1,0.2c4.4,0.8,11,3.8,12.7,13.6c0,0,2.9,13.5-8.6,20.9c0,0-3,2.6-12.6,4.7
		c-2.9,0.6-2.5,2.6-2.5,2.6s0.1,0.7,0.2,1.2c0.5,2.6,1.1,4,2.5,5.5c1.9,2.2,7,5.4,14.6,1.5c7.6-3.9,12.4-12.3,14.7-20.1
		c0,0,1.9-4.3,1.7-11.5c0-2.1,0-4.1,0-4.7c0.1-2.4,0.3-6.4,1.1-10c0.3-1.3,0.9-3.2,1.2-4c2.2-5.4,6.8-10.5,11.4-11.3
		c0,0,5.6-1.7,10.6,1.7c0.2,0.2,1.5,1.1,2.4,1.5c0.6,0.3,1.3,0.5,1.9,0.6c2,0.3,3.6-1.5,4.1-2.3c0.5-0.6,2.6-3.3,5-4.3
		c2.2-0.8,3.5,0,3.6,1.5c0.1,1.6,0,6.7,0,6.7s-0.2,13-0.2,21.9c0,1.3-0.2,10.5-0.3,17.4c0.1,1.1,0.3,2.1,0.9,2.4
		c0.3,0.2,0.7,0.3,1.2,0.1c0,0,4.9-3.3,9.1-12.9c0,0,4.1-9.7,4.4-16.3c0-2.9-0.1-7.3-0.1-8.3c0.1-2.4,0.3-6.4,1.1-10
		c0.3-1.3,1.1-3.6,1.4-4.4c2.2-5.4,6.8-10.1,11.4-10.9c0,0,5.5-1.7,10.5,1.7c0.2,0.2,1.4,1.1,2.4,1.5c0.6,0.3,1.3,0.5,1.9,0.6
		c2,0.3,3.6-1.5,4.1-2.2c0.5-0.6,2.7-3.4,5-4.2c2.2-0.8,3.6-0.1,3.7,1.4c0.1,1.6-0.1,6.7-0.1,6.7s-0.2,13-0.2,21.9
		c0,1.3-0.2,10.5-0.3,17.4c0,0,0,0.1,0,0.1c0.1,0.9,0.4,1.7,0.9,2c0.3,0.2,0.7,0.3,1.2,0.1c0,0,5.2-3.2,9.3-12.8
		c0,0,0.7-1.5,1.4-3.1c0,0,0.7-1.2,2.8-0.9c2,0.6,2.8,1.5,2.9,2.6C165,110.6,164.7,111.4,164.6,111.6z M20.7,134.9
		c0.9-0.4,3.8-2.4,5.2-5.2c0.1-0.2,0.6-1.1,0.7-1.5c1-3.1,1.9-11.6-1.3-12.9c-3.6-1.4-6.7,2.5-6.7,2.5c-5,5.7-3.8,15.3-3.8,15.3
		C14.9,137.6,19.7,135.3,20.7,134.9z M77.1,164.2c0-0.9,0-1.3,0-1.3c0-0.2,0-0.6-0.5-0.7c-0.8-0.2-1.9,0.8-1.9,0.8s-3,2.1-5.3,5.2
		c-2.7,3.8-1.6,6.4,0,7.4c1.5,1,4.8,0.3,6.5-3.8C77.4,167,77.1,164.2,77.1,164.2z M77.6,109.1c-1.1-6.8-6.2-6.8-6.2-6.8
		c-2.6,0-4.5,1.5-4.5,1.5c-1.6,1.3-3.5,4.7-4.5,12.6c-1,8-0.2,15.1,1.7,21.2c1.9,6.1,7,3.5,7,3.5c6.7-3.8,6.6-13,6.6-13
		C78.1,119.1,77.6,109.1,77.6,109.1z M133.3,148.6c0-0.9,0-1.3,0-1.3c0-0.2,0-0.6-0.5-0.7c-0.8-0.2-1.9,0.8-1.9,0.8
		s-2.9,2.3-5.2,5.5c-2.7,3.8-1.6,6.3-0.1,7.2c1.5,1,4.8,0.4,6.5-3.7C133.7,151.6,133.3,148.6,133.3,148.6z M133.8,93.7
		c-1.1-6.8-6.3-6.9-6.3-6.9c-2.6,0-4.4,1.5-4.4,1.5c-1.6,1.3-3.6,4.7-4.5,12.6s-0.2,15.1,1.7,21.2c1.9,6.1,6.9,3.3,6.9,3.3
		c6.7-3.8,6.8-12.9,6.8-12.9C134.5,103.5,133.8,93.7,133.8,93.7z M180.2,89.6c0.4-1.1-0.2-2.3-1.3-2.6c-1.1-0.4-2.3,0.2-2.6,1.3
		c-1.3,4-5.4,6.9-9.5,6.9c-2.4,0-4.4-1-5.4-2.8c-0.6-1-1.9-1.3-2.9-0.7c-1,0.6-1.3,1.9-0.7,2.9c1.8,3,5.2,4.8,9,4.8
		C172.7,99.4,178.4,95.3,180.2,89.6z"/>
	<path class="st0" d="M186,77.3c0,1-0.8,1.8-1.8,1.8c-1,0-1.8-0.8-1.8-1.8c0-1,0.8-1.7,1.8-1.7h0C185.2,75.5,186,76.3,186,77.3z
		 M185.5,77.3c0-0.8-0.6-1.4-1.3-1.4h0c-0.8,0-1.3,0.6-1.3,1.4c0,0.8,0.6,1.4,1.4,1.4C185,78.7,185.5,78,185.5,77.3z M184.9,77.7
		c0.1,0.3,0.1,0.4,0.1,0.4h-0.4c-0.1-0.1-0.1-0.2-0.1-0.4c0-0.2-0.1-0.3-0.4-0.3h-0.2v0.7h-0.4v-1.7c0.2,0,0.4-0.1,0.7-0.1
		c0.3,0,0.5,0.1,0.6,0.1c0.1,0.1,0.2,0.2,0.2,0.4c0,0.2-0.1,0.4-0.4,0.4v0C184.8,77.4,184.9,77.5,184.9,77.7z M184.5,76.9
		c0-0.2-0.1-0.3-0.4-0.3c-0.1,0-0.2,0-0.2,0v0.5h0.2C184.3,77.2,184.5,77.1,184.5,76.9z"/>
</g>
</svg>
